<svg xmlns="http://www.w3.org/2000/svg" width="17" height="17" viewBox="0 0 17 17" fill="none">
  <path d="M15.879 15.1673L8.97278 1.35485C8.92364 1.27339 8.85429 1.20601 8.77145 1.15924C8.68862 1.11247 8.5951 1.08789 8.49997 1.08789C8.40484 1.08789 8.31132 1.11247 8.22848 1.15924C8.14565 1.20601 8.07629 1.27339 8.02716 1.35485L1.12091 15.1673C1.07941 15.2481 1.05943 15.3383 1.06288 15.429C1.06633 15.5198 1.09311 15.6081 1.14062 15.6855C1.18813 15.7629 1.25477 15.8268 1.33414 15.8709C1.4135 15.9151 1.5029 15.9381 1.59372 15.9377H15.4062C15.497 15.9381 15.5864 15.9151 15.6658 15.8709C15.7452 15.8268 15.8118 15.7629 15.8593 15.6855C15.9068 15.6081 15.9336 15.5198 15.9371 15.429C15.9405 15.3383 15.9205 15.2481 15.879 15.1673ZM7.57028 6.01922C7.62101 5.9641 7.6826 5.92008 7.75117 5.88991C7.81974 5.85974 7.89381 5.84408 7.96872 5.84391H9.03122C9.10613 5.84408 9.1802 5.85974 9.24877 5.88991C9.31734 5.92008 9.37892 5.9641 9.42966 6.01922C9.47871 6.07553 9.5154 6.14151 9.53736 6.21289C9.55933 6.28426 9.56607 6.35945 9.55716 6.4336L9.02591 11.2148C9.01208 11.3447 8.95071 11.4648 8.85361 11.5521C8.75651 11.6394 8.63055 11.6877 8.49997 11.6877C8.36939 11.6877 8.24343 11.6394 8.14633 11.5521C8.04923 11.4648 7.98786 11.3447 7.97403 11.2148L7.44278 6.4336C7.43387 6.35945 7.44061 6.28426 7.46257 6.21289C7.48454 6.14151 7.52123 6.07553 7.57028 6.01922ZM8.49997 14.3439C8.28983 14.3439 8.0844 14.2816 7.90968 14.1648C7.73495 14.0481 7.59876 13.8822 7.51835 13.688C7.43793 13.4939 7.41689 13.2802 7.45788 13.0741C7.49888 12.868 7.60008 12.6787 7.74867 12.5301C7.89726 12.3815 8.08658 12.2803 8.29269 12.2393C8.49879 12.1983 8.71242 12.2194 8.90657 12.2998C9.10072 12.3802 9.26666 12.5164 9.38341 12.6911C9.50015 12.8658 9.56247 13.0713 9.56247 13.2814C9.56164 13.5629 9.44944 13.8327 9.25036 14.0318C9.05128 14.2309 8.78151 14.3431 8.49997 14.3439Z" fill="#ED3237"/>
</svg>