<svg xmlns="http://www.w3.org/2000/svg" width="20" height="20" viewBox="0 0 20 20" fill="none">
  <path d="M9.99984 1.66699C8.35166 1.66699 6.7405 2.15573 5.37009 3.07141C3.99968 3.98709 2.93158 5.28858 2.30084 6.8113C1.67011 8.33401 1.50509 10.0096 1.82663 11.6261C2.14817 13.2426 2.94185 14.7274 4.10728 15.8929C5.27272 17.0583 6.75758 17.852 8.37409 18.1735C9.9906 18.4951 11.6662 18.3301 13.1889 17.6993C14.7116 17.0686 16.0131 16.0005 16.9288 14.6301C17.8444 13.2597 18.3332 11.6485 18.3332 10.0003C18.3332 8.90598 18.1176 7.82234 17.6988 6.8113C17.28 5.80025 16.6662 4.88159 15.8924 4.10777C15.1186 3.33395 14.1999 2.72012 13.1889 2.30133C12.1778 1.88254 11.0942 1.66699 9.99984 1.66699ZM9.99984 16.667C8.6813 16.667 7.39237 16.276 6.29604 15.5435C5.19971 14.8109 4.34523 13.7697 3.84064 12.5515C3.33606 11.3334 3.20404 9.99293 3.46127 8.69972C3.71851 7.40652 4.35345 6.21863 5.2858 5.28628C6.21815 4.35393 7.40603 3.71899 8.69924 3.46176C9.99245 3.20452 11.3329 3.33654 12.5511 3.84113C13.7692 4.34571 14.8104 5.2002 15.543 6.29652C16.2755 7.39285 16.6665 8.68178 16.6665 10.0003C16.6665 11.7684 15.9641 13.4641 14.7139 14.7144C13.4636 15.9646 11.768 16.667 9.99984 16.667Z" fill="white"/>
  <path d="M9.99965 5.00049C9.77864 5.00049 9.56668 5.08829 9.4104 5.24457C9.25412 5.40085 9.16632 5.61281 9.16632 5.83382V9.65882L6.90799 11.9088C6.82075 11.9835 6.7499 12.0755 6.69988 12.1788C6.64986 12.2822 6.62175 12.3948 6.61732 12.5096C6.61289 12.6244 6.63223 12.7388 6.67412 12.8458C6.71602 12.9527 6.77956 13.0498 6.86078 13.131C6.94199 13.2122 7.03911 13.2758 7.14605 13.3177C7.25299 13.3596 7.36743 13.3789 7.4822 13.3745C7.59696 13.3701 7.70957 13.3419 7.81296 13.2919C7.91635 13.2419 8.00828 13.1711 8.08299 13.0838L10.583 10.5838C10.74 10.43 10.8299 10.2203 10.833 10.0005V5.83382C10.833 5.61281 10.7452 5.40085 10.5889 5.24457C10.4326 5.08829 10.2207 5.00049 9.99965 5.00049Z" fill="white"/>
</svg>