<svg xmlns="http://www.w3.org/2000/svg" width="21" height="21" viewBox="0 0 21 21" fill="none">
  <g clip-path="url(#clip0_576_2979)">
    <path d="M10.6875 19.875C10.6875 19.75 10.625 19.6875 10.5 19.6875C10.0391 19.6875 9.64258 19.5215 9.31055 19.1895C8.97852 18.8574 8.8125 18.4609 8.8125 18C8.8125 17.875 8.75 17.8125 8.625 17.8125C8.5 17.8125 8.4375 17.875 8.4375 18C8.4375 18.5703 8.63867 19.0566 9.04102 19.459C9.44336 19.8613 9.92969 20.0625 10.5 20.0625C10.625 20.0625 10.6875 20 10.6875 19.875ZM20.25 16.5C20.25 16.9062 20.1016 17.2578 19.8047 17.5547C19.5078 17.8516 19.1563 18 18.75 18H13.5C13.5 18.8281 13.207 19.5352 12.6211 20.1211C12.0352 20.707 11.3281 21 10.5 21C9.67188 21 8.96484 20.707 8.37891 20.1211C7.79297 19.5352 7.5 18.8281 7.5 18H2.25C1.84375 18 1.49219 17.8516 1.19531 17.5547C0.898438 17.2578 0.75 16.9062 0.75 16.5C1.14063 16.1719 1.49609 15.8281 1.81641 15.4688C2.13672 15.1094 2.46875 14.6426 2.8125 14.0684C3.15625 13.4941 3.44727 12.875 3.68555 12.2109C3.92383 11.5469 4.11914 10.7422 4.27148 9.79688C4.42383 8.85156 4.5 7.83594 4.5 6.75C4.5 5.5625 4.95703 4.45898 5.87109 3.43945C6.78516 2.41992 7.98438 1.80078 9.46875 1.58203C9.40625 1.43359 9.375 1.28125 9.375 1.125C9.375 0.8125 9.48438 0.546875 9.70313 0.328125C9.92188 0.109375 10.1875 0 10.5 0C10.8125 0 11.0781 0.109375 11.2969 0.328125C11.5156 0.546875 11.625 0.8125 11.625 1.125C11.625 1.28125 11.5938 1.43359 11.5313 1.58203C13.0156 1.80078 14.2148 2.41992 15.1289 3.43945C16.043 4.45898 16.5 5.5625 16.5 6.75C16.5 7.83594 16.5762 8.85156 16.7285 9.79688C16.8809 10.7422 17.0762 11.5469 17.3145 12.2109C17.5527 12.875 17.8438 13.4941 18.1875 14.0684C18.5313 14.6426 18.8633 15.1094 19.1836 15.4688C19.5039 15.8281 19.8594 16.1719 20.25 16.5Z" fill="#ED3237"/>
  </g>
  <defs>
    <clipPath id="clip0_576_2979">
      <rect width="21" height="21" fill="white"/>
    </clipPath>
  </defs>
</svg>