<svg xmlns="http://www.w3.org/2000/svg" width="310" height="289" viewBox="0 0 310 289" fill="none">
  <path d="M170.271 288.216H76.98C54.173 288.216 32.9891 276.425 20.981 257.048L5.95533 232.801C-6.33412 212.969 1.03855 186.873 21.8918 176.394C40.752 166.915 48.9091 144.356 40.4686 125.019L34.4603 111.254C25.5793 90.9066 29.6629 67.2304 44.8476 51.0289L71.2039 22.9077C99.0801 -6.83495 146.062 -7.60199 174.895 21.215L207.791 54.0925C212.064 58.363 218.707 59.1525 223.863 56.0025C232.142 50.9455 242.854 56.3371 243.716 65.9942L247.798 111.71C248.696 121.768 253.252 131.139 261.327 137.207C277.257 149.178 299.232 163.925 303.251 173.739C331.584 242.9 245.052 288.216 170.271 288.216Z" fill="#E7E8FF"/>
  <path d="M21.2206 235.547C46.9963 248.335 57.7142 275.619 59.5134 287.854H49.8503C28.2055 272.784 20.2576 249.299 18.8524 237.174C18.7 235.859 20.0352 234.959 21.2206 235.547Z" fill="#032068"/>
  <path d="M28.1541 196.833C57.0978 210.878 65.5956 262.815 66.2032 287.482H53.1952C23.1646 244.135 22.2438 210.846 25.8678 197.835C26.1429 196.848 27.2314 196.385 28.1541 196.833Z" fill="white"/>
  <path fill-rule="evenodd" clip-rule="evenodd" d="M26.7325 198.077C26.8503 197.653 27.3194 197.426 27.7624 197.641C41.8914 204.496 51.1516 220.686 56.9515 238.452C62.5946 255.739 64.8899 274.298 65.2799 286.584H53.666C24.0027 243.579 23.2103 210.721 26.7325 198.077ZM28.546 196.025C27.1435 195.345 25.4358 196.041 25.0032 197.594C21.2881 210.932 22.3218 244.495 52.4575 287.993L52.7252 288.379H67.1231L67.1005 287.46C66.7951 275.058 64.5089 255.818 58.658 237.895C52.8212 220.015 43.3605 203.214 28.546 196.025Z" fill="#032068"/>
  <path fill-rule="evenodd" clip-rule="evenodd" d="M29.6825 207.516L41.5959 239.682L34.6138 236.491L33.8678 238.124L42.4758 242.058L53.2774 271.222L47.2088 268.808L46.5453 270.476L54.1165 273.487L59.4149 287.793L61.0983 287.17L50.3516 258.153L55.8724 245.852L54.2346 245.117L49.4618 255.751L37.8032 224.273L40.6739 214.9L38.9573 214.374L36.7756 221.498L31.3659 206.892L29.6825 207.516Z" fill="#032068"/>
  <path d="M246.348 31.9616L249.754 28.4383C250.361 27.8109 251.416 28.3304 251.288 29.1938L250.586 33.9275C250.543 34.214 250.641 34.5032 250.85 34.7045L254.615 38.3442C255.221 38.9304 254.758 39.9535 253.917 39.8841L248.642 39.4484C248.386 39.4272 248.132 39.5171 247.947 39.6953L243.751 43.7221C243.127 44.3203 242.102 43.7793 242.244 42.9273L243.139 37.5489C243.183 37.2868 243.108 37.019 242.934 36.8174L239.074 32.3143C238.506 31.652 239.121 30.6508 239.969 30.8583L245.49 32.2096C245.8 32.2855 246.126 32.1911 246.348 31.9616ZM267.607 88.576L269.09 88.0211C269.906 87.715 270.636 88.6374 270.149 89.3619L269.293 90.6373C269.132 90.8778 269.097 91.1813 269.198 91.4527L269.871 93.2489C270.167 94.0389 269.308 94.7638 268.579 94.3401L266.871 93.3471C266.649 93.218 266.381 93.1904 266.138 93.2721L264.04 93.9683C263.22 94.2408 262.527 93.3118 263.021 92.6035L264.158 90.9727C264.31 90.7554 264.358 90.4806 264.288 90.2247L263.702 88.0653C263.474 87.2233 264.46 86.5836 265.137 87.1349L266.726 88.431C266.973 88.6327 267.309 88.6879 267.607 88.576ZM28.3262 127.478L25.8093 130.766C25.6562 130.965 25.4064 131.061 25.1618 131.015L22.0509 130.42C21.3816 130.292 20.9778 131.151 21.4944 131.603L23.9393 133.745C24.1178 133.901 24.2021 134.142 24.161 134.378L23.5477 137.91C23.4324 138.574 24.2339 138.985 24.6877 138.494L27.1991 135.78C27.3466 135.621 27.5603 135.544 27.7732 135.574L30.6798 135.978C31.3346 136.068 31.7053 135.236 31.2075 134.793L29.0459 132.868C28.8723 132.714 28.7894 132.479 28.8266 132.247L29.5082 128.005C29.6197 127.311 28.7505 126.923 28.3262 127.478Z" fill="#ED3237"/>
  <path d="M58.3331 36.9086C58.3331 30.9599 63.1555 26.1376 69.1042 26.1376H191.643C197.591 26.1376 202.413 30.9599 202.413 36.9086V276.511C202.413 282.461 197.591 287.283 191.643 287.283H69.1042C63.1556 287.283 58.3331 282.461 58.3331 276.511V36.9086Z" fill="white"/>
  <path fill-rule="evenodd" clip-rule="evenodd" d="M57.4357 36.9086C57.4357 30.4643 62.6598 25.2401 69.1042 25.2401H191.643C198.087 25.2401 203.31 30.4643 203.31 36.9086V276.511C203.31 282.956 198.087 288.18 191.643 288.18H69.1042C62.6598 288.18 57.4357 282.956 57.4357 276.511V36.9086ZM69.1042 27.0352C63.6513 27.0352 59.2308 31.4557 59.2308 36.9086V276.511C59.2308 281.965 63.6513 286.385 69.1042 286.385H191.643C197.095 286.385 201.515 281.965 201.515 276.511V36.9086C201.515 31.4557 197.095 27.0352 191.643 27.0352H69.1042Z" fill="#032068"/>
  <path d="M101.724 34.8929L97.0546 26.1373H163.692L158.202 35.2869C156.58 37.9905 153.658 39.6447 150.505 39.6447H109.644C106.33 39.6447 103.284 37.8177 101.724 34.8929Z" fill="#032068"/>
  <path d="M200.647 31.5402H59.1816C63.8642 26.8576 68.3368 25.9872 69.9877 26.1372H189.841C195.604 26.1372 199.445 29.7393 200.647 31.5402ZM200.578 282.163H60.1686C65.0348 286.92 67.8473 287.805 69.563 287.653H191.184C197.172 287.653 199.331 283.992 200.578 282.163Z" fill="#032068"/>
  <path d="M74.8509 56.6395C74.8509 55.1523 76.0564 53.9467 77.5436 53.9467H123.549C125.037 53.9467 126.243 55.1523 126.243 56.6395V56.7602C126.243 58.2474 125.037 59.453 123.549 59.453H77.5436C76.0564 59.453 74.8509 58.2474 74.8509 56.7602V56.6395Z" fill="#ED3237"/>
  <path fill-rule="evenodd" clip-rule="evenodd" d="M73.5919 74.7642C73.5919 72.7812 75.1994 71.1738 77.1823 71.1738H183.994C185.978 71.1738 187.584 72.7812 187.584 74.7642V172.601C187.584 174.583 185.978 176.191 183.994 176.191H77.1823C75.1994 176.191 73.5919 174.583 73.5919 172.601V74.7642ZM77.1823 72.9689C76.1908 72.9689 75.3872 73.7727 75.3872 74.7642V172.601C75.3872 173.593 76.1908 174.396 77.1823 174.396H183.994C184.986 174.396 185.789 173.593 185.789 172.601V74.7642C185.789 73.7727 184.986 72.9689 183.994 72.9689H77.1823Z" fill="#E7E8FF"/>
  <path d="M102.315 245.132C102.315 243.644 103.521 242.439 105.008 242.439H156.169C157.657 242.439 158.863 243.644 158.863 245.132V259.494C158.863 260.98 157.657 262.186 156.169 262.186H105.008C103.521 262.186 102.315 260.98 102.315 259.494V245.132Z" fill="#ED3237"/>
  <path fill-rule="evenodd" clip-rule="evenodd" d="M192.298 38.9694V46.3111H190.503V38.9694H192.298ZM187.71 39.8872V46.3111H185.915V39.8872H187.71ZM183.122 41.7226V46.3111H181.326V41.7226H183.122ZM178.533 43.558V46.3111H176.738V43.558H178.533Z" fill="#032068"/>
  <path d="M74.4896 125.028H187.585V134.902H74.4896V125.028Z" fill="#E7E8FF"/>
  <path d="M99.6225 72.0715H109.495V126.824H99.6225V72.0715ZM148.989 130.415H158.863V175.294H148.989V130.415Z" fill="#E7E8FF"/>
  <path fill-rule="evenodd" clip-rule="evenodd" d="M131.937 132.779C135.115 132.779 149.02 108.248 149.02 98.8891C149.02 89.5307 141.372 81.9448 131.937 81.9448C122.501 81.9448 114.853 89.5307 114.853 98.8891C114.853 108.248 127.567 132.779 131.937 132.779ZM131.937 107.779C136.77 107.779 140.686 103.861 140.686 99.0282C140.686 94.1956 136.77 90.2787 131.937 90.2787C127.104 90.2787 123.186 94.1956 123.186 99.0282C123.186 103.861 127.104 107.779 131.937 107.779Z" fill="#ED3237"/>
  <path d="M163.408 226.622C163.408 230.4 160.564 233.464 157.055 233.464C153.547 233.464 150.702 230.4 150.702 226.622C150.702 222.843 153.547 219.78 157.055 219.78C160.564 219.78 163.408 222.843 163.408 226.622Z" fill="white"/>
  <path d="M240.703 150.506L245.066 161.141C245.066 164.364 243.225 170.809 235.857 170.809C228.488 170.809 224.061 166.619 222.769 164.525V156.308C220.345 156.308 217.436 152.924 215.982 150.506C214.528 148.09 207.741 133.588 215.498 124.404C223.253 115.22 233.917 121.504 240.703 130.205C246.133 137.165 242.965 146.639 240.703 150.506Z" fill="#EFCB96"/>
  <path d="M300.811 287.304H198.047C189.322 275.703 183.506 189.66 188.837 180.476C197.256 165.975 214.044 162.591 221.799 160.658C223.091 163.075 226.84 165.975 233.432 165.975C240.025 165.975 244.258 161.141 245.55 158.724C254.922 160.497 275.991 166.072 285.299 174.193C296.933 184.343 305.658 230.265 309.052 259.269C311.766 282.471 304.689 287.626 300.811 287.304Z" fill="#ED3237"/>
  <path d="M262.516 278.603C272.211 274.736 284.006 254.112 288.692 244.283C284.976 258.301 270.272 285.002 259.124 282.954C244.387 280.246 221.96 249.278 212.589 234.132C225.192 250.567 252.821 282.471 262.516 278.603Z" fill="#032068"/>
  <path d="M244.582 271.836C255.051 266.421 268.656 267.968 274.15 269.419C272.049 273.447 266.395 281.31 260.578 280.536C254.761 279.763 247.49 274.414 244.582 271.836ZM253.791 225.915L259.122 209.479L250.883 223.497C244.29 221.564 234.402 216.731 222.769 214.313C233.432 218.18 253.468 229.459 264.939 236.065L253.791 225.915Z" fill="#032068"/>
  <path d="M216.467 210.929C216.855 211.703 218.891 214.474 219.86 215.763L213.074 227.365C212.499 226.559 210.866 224.658 208.926 223.497C206.503 222.048 199.016 220.598 199.016 214.797C199.016 210.156 202.248 206.418 203.864 205.129C201.279 202.39 195.623 197.878 195.623 196.428C195.623 195.347 196.108 193.528 198.047 194.011C199.986 194.495 206.773 202.228 208.227 202.712C209.681 203.196 213.558 202.712 215.012 203.679C216.467 204.646 215.982 209.963 216.467 210.929Z" fill="#EFCB96"/>
  <path d="M233.917 153.89C230.427 156.598 225.031 156.63 222.769 156.308V159.691C227.422 159.691 232.139 155.824 233.917 153.89ZM237.795 146.639C238.182 148.186 240.865 152.763 242.158 154.857C246.036 153.407 247.006 132.621 244.582 126.338C242.643 121.31 235.371 120.053 232.463 120.537C230.524 119.087 228.102 116.186 213.56 118.604C199.018 121.02 199.018 137.455 208.712 137.938C218.407 138.423 222.283 133.588 223.738 134.071C225.192 134.556 226.162 135.522 229.554 139.872C232.948 144.223 231.978 144.223 232.463 139.872C232.948 135.522 234.887 135.522 238.279 137.938C241.673 140.356 237.311 144.706 237.795 146.639Z" fill="#032068"/>
  <path d="M168.821 175.697L175.555 205.241C175.621 205.535 175.849 205.767 176.143 205.84L187.582 208.684C188.16 208.827 188.688 208.317 188.561 207.736L182.54 180.334C182.484 180.078 182.305 179.865 182.061 179.766L169.909 174.78C169.308 174.533 168.677 175.064 168.821 175.697Z" fill="white"/>
  <path fill-rule="evenodd" clip-rule="evenodd" d="M170.214 174.039C169.012 173.546 167.751 174.61 168.039 175.874L174.773 205.418C174.906 206.006 175.362 206.47 175.949 206.616L187.388 209.461C188.543 209.748 189.599 208.725 189.344 207.565L183.324 180.163C183.211 179.65 182.853 179.225 182.367 179.025L170.214 174.039ZM169.604 175.519L181.757 180.505L187.777 207.908L176.337 205.063L169.604 175.519Z" fill="#032068"/>
  <path d="M185.156 210.116V214.297C180.376 216.666 170.987 220.149 171.661 215.133C172.505 208.863 169.974 208.026 168.71 200.921C167.697 195.237 170.256 192.979 171.661 192.561C171.942 193.675 172.589 196.156 172.927 197.159C173.348 198.413 177.565 196.323 180.939 195.905C184.312 195.487 186.42 201.757 186.843 205.1C187.264 208.445 185.156 208.863 185.156 210.116Z" fill="#EFCB96"/>
  <path d="M198.532 256.368C198.532 262.555 194.33 266.519 192.231 267.968L192.715 270.869C194.977 271.352 200.024 265.552 200.47 259.751C201.243 249.746 192.798 224.552 188.416 213.032C188.394 212.974 188.373 212.917 188.352 212.863C188.373 212.92 188.395 212.976 188.416 213.032C190.91 219.659 198.532 248.701 198.532 256.368Z" fill="#032068"/>
  <path d="M177.575 214.313C169.819 214.313 170.902 212.863 168.964 209.479C168.964 221.242 164.601 246.216 166.539 255.885C168.962 267.968 177.575 272.319 182.906 271.352C188.238 270.386 196.965 267.968 198.419 257.334C199.582 248.827 191.471 221.886 187.27 209.479C186.786 210.607 184.27 214.313 177.575 214.313Z" fill="#ED3237"/>
  <path d="M168.364 262.168C180.386 255.595 192.762 259.106 197.448 261.685C196.156 264.908 191.438 271.449 182.906 271.836C174.375 272.223 169.658 265.552 168.364 262.168Z" fill="#032068"/>
</svg>